<svg xmlns="http://www.w3.org/2000/svg" viewBox="16 17 280 330" fill="#1b1b1b">
<g transform="translate(-36,471) scale(0.1,-0.1)">
<path d="M360 2540 l0 -2170 2030 0 2030 0 0 2170 0 2170 -2030 0 -2030 0 0 -2170z m4000 0 l0 -2110 -1970 0 -1970 0 0 2110 0 2110 1970 0 1970 0 0 -2110z"/>
<path d="M560 4493 c0 -5 0 -161 0 -348 l0 -340 731 -5 731 -5 -59 -75 c-390 -495 -623 -942 -759 -1449 -58 -217 -144 -655 -144 -733 0 -17 26 -18 470 -18 441 0 470 1 470 18 0 50 41 381 56 450 l4 22 518 0 518 0 74 -245 73 -245 485 0 c457 0 484 1 477 18 -4 9 -255 679 -559 1487 l-552 1470 -1267 3 c-697 1 -1267 -1 -1267 -5z m2495 -275 c290 -766 955 -2545 955 -2555 0 -10 -69 -13 -335 -13 -184 0 -335 2 -335 4 0 13 -122 405 -132 424 -6 12 -26 32 -44 42 -30 19 -52 20 -553 20 -467 0 -521 2 -521 16 0 22 47 205 77 302 24 75 28 82 47 75 12 -5 179 -8 371 -8 311 0 353 2 381 17 36 19 64 71 64 117 0 17 -60 228 -134 468 -74 241 -144 477 -157 526 -13 48 -26 87 -29 87 -18 0 -220 -278 -308 -421 -267 -439 -461 -1038 -518 -1601 l-6 -68 -276 0 -275 0 7 56 c18 155 90 474 152 674 125 402 348 811 665 1218 54 70 103 141 108 159 11 39 -1 97 -26 125 -42 48 -39 48 -758 48 l-675 0 0 213 c0 118 3 217 7 220 3 4 498 7 1098 7 l1092 0 58 -152z m-290 -1113 c59 -192 113 -370 121 -395 8 -25 14 -46 14 -47 0 -2 -144 -3 -320 -3 -176 0 -320 3 -320 8 0 4 12 48 26 97 30 103 115 288 199 432 61 104 166 265 171 261 1 -2 50 -160 109 -353z"/>
</g>
</svg>
