<svg xmlns="http://www.w3.org/2000/svg" viewBox="0 0 406 434" fill="#1b1b1b">
<g transform="translate(-36,471) scale(0.1,-0.1)">
<path d="M360 2540 l0 -2170 2030 0 2030 0 0 2170 0 2170 -2030 0 -2030 0 0 -2170z m4000 0 l0 -2110 -1970 0 -1970 0 0 2110 0 2110 1970 0 1970 0 0 -2110z"/>
<path d="M560 4493 c0 -5 0 -161 0 -348 l0 -340 731 -5 731 -5 -59 -75 c-390 -495 -623 -942 -759 -1449 -58 -217 -144 -655 -144 -733 0 -17 26 -18 470 -18 441 0 470 1 470 18 0 50 41 381 56 450 l4 22 518 0 518 0 74 -245 73 -245 485 0 c457 0 484 1 477 18 -4 9 -255 679 -559 1487 l-552 1470 -1267 3 c-697 1 -1267 -1 -1267 -5z m2495 -275 c290 -766 955 -2545 955 -2555 0 -10 -69 -13 -335 -13 -184 0 -335 2 -335 4 0 13 -122 405 -132 424 -6 12 -26 32 -44 42 -30 19 -52 20 -553 20 -467 0 -521 2 -521 16 0 22 47 205 77 302 24 75 28 82 47 75 12 -5 179 -8 371 -8 311 0 353 2 381 17 36 19 64 71 64 117 0 17 -60 228 -134 468 -74 241 -144 477 -157 526 -13 48 -26 87 -29 87 -18 0 -220 -278 -308 -421 -267 -439 -461 -1038 -518 -1601 l-6 -68 -276 0 -275 0 7 56 c18 155 90 474 152 674 125 402 348 811 665 1218 54 70 103 141 108 159 11 39 -1 97 -26 125 -42 48 -39 48 -758 48 l-675 0 0 213 c0 118 3 217 7 220 3 4 498 7 1098 7 l1092 0 58 -152z m-290 -1113 c59 -192 113 -370 121 -395 8 -25 14 -46 14 -47 0 -2 -144 -3 -320 -3 -176 0 -320 3 -320 8 0 4 12 48 26 97 30 103 115 288 199 432 61 104 166 265 171 261 1 -2 50 -160 109 -353z"/>
<path d="M590 1261 l0 -190 -47 -3 c-40 -3 -48 -6 -48 -23 0 -17 7 -20 48 -20 l47 0 0 -217 0 -218 110 0 110 0 0 218 0 217 160 -3 160 -3 0 26 0 25 -160 0 -160 0 0 170 0 170 170 0 c163 0 170 1 170 20 0 20 -7 20 -280 20 l-280 0 0 -189z"/>
<path d="M1341 1029 c-88 -231 -161 -424 -161 -430 0 -5 32 -9 71 -9 81 0 67 -18 134 173 l37 107 137 0 138 0 50 -137 50 -138 107 -3 c58 -1 106 -1 106 1 0 2 -68 181 -151 398 -83 217 -156 409 -162 427 l-10 32 -92 0 -93 0 -161 -421z m279 47 l58 -156 -120 0 c-92 0 -119 3 -116 13 3 6 29 78 58 160 29 81 55 145 57 143 3 -3 31 -75 63 -160z"/>
<path d="M2210 1020 l0 -430 110 0 110 0 0 410 c0 384 1 410 18 410 60 -1 166 -25 219 -49 67 -32 93 -66 93 -122 0 -73 -92 -144 -222 -171 -36 -8 -57 -16 -54 -24 2 -6 82 -111 178 -232 l173 -222 114 0 c106 0 113 1 100 17 -8 10 -90 109 -182 221 -93 112 -166 206 -163 210 4 3 37 15 76 28 127 40 193 92 206 161 27 142 -190 223 -593 223 l-183 0 0 -430z"/>
<path d="M3260 1020 l0 -430 75 0 75 0 2 308 3 307 123 -197 124 -198 38 0 c37 0 38 1 111 120 41 66 98 157 126 202 l53 83 0 -312 0 -313 100 0 100 0 2 430 3 430 -90 0 -91 0 -138 -220 c-76 -121 -141 -220 -144 -220 -4 0 -68 98 -144 218 l-136 217 -96 3 -96 3 0 -431z"/>
</g>
</svg>
